<mxfile host="Electron" agent="Mozilla/5.0 (Windows NT 10.0; Win64; x64) AppleWebKit/537.36 (KHTML, like Gecko) draw.io/24.7.17 Chrome/128.0.6613.36 Electron/32.0.1 Safari/537.36" version="24.7.17">
  <diagram name="Pagina-1" id="faIlEUxw33uXFh5y1cBX">
    <mxGraphModel dx="693" dy="401" grid="1" gridSize="10" guides="1" tooltips="1" connect="1" arrows="1" fold="1" page="1" pageScale="1" pageWidth="827" pageHeight="1169" math="1" shadow="0">
      <root>
        <mxCell id="0" />
        <mxCell id="1" parent="0" />
        <mxCell id="S3W5Z64NG27iIAzBz88U-208" value="" style="ellipse;whiteSpace=wrap;html=1;fillColor=#b1ddf0;strokeColor=none;rotation=-45;" vertex="1" parent="1">
          <mxGeometry x="520" y="420" width="150" height="40" as="geometry" />
        </mxCell>
        <mxCell id="S3W5Z64NG27iIAzBz88U-209" value="" style="ellipse;whiteSpace=wrap;html=1;fillColor=#b1ddf0;strokeColor=none;rotation=-45;" vertex="1" parent="1">
          <mxGeometry x="370" y="366.01" width="331" height="40" as="geometry" />
        </mxCell>
        <mxCell id="S3W5Z64NG27iIAzBz88U-210" value="" style="ellipse;whiteSpace=wrap;html=1;fillColor=#b1ddf0;strokeColor=none;rotation=-45;" vertex="1" parent="1">
          <mxGeometry x="309" y="360" width="331" height="40" as="geometry" />
        </mxCell>
        <mxCell id="S3W5Z64NG27iIAzBz88U-211" value="" style="ellipse;whiteSpace=wrap;html=1;fillColor=#b1ddf0;strokeColor=none;rotation=-45;" vertex="1" parent="1">
          <mxGeometry x="330" y="309.39" width="150" height="40" as="geometry" />
        </mxCell>
        <mxCell id="S3W5Z64NG27iIAzBz88U-212" style="edgeStyle=orthogonalEdgeStyle;rounded=0;orthogonalLoop=1;jettySize=auto;html=1;entryX=0.5;entryY=0;entryDx=0;entryDy=0;" edge="1" parent="1" source="S3W5Z64NG27iIAzBz88U-214" target="S3W5Z64NG27iIAzBz88U-231">
          <mxGeometry relative="1" as="geometry" />
        </mxCell>
        <mxCell id="S3W5Z64NG27iIAzBz88U-213" style="edgeStyle=orthogonalEdgeStyle;rounded=0;orthogonalLoop=1;jettySize=auto;html=1;entryX=0;entryY=0.5;entryDx=0;entryDy=0;" edge="1" parent="1" source="S3W5Z64NG27iIAzBz88U-214" target="S3W5Z64NG27iIAzBz88U-222">
          <mxGeometry relative="1" as="geometry" />
        </mxCell>
        <mxCell id="S3W5Z64NG27iIAzBz88U-214" value="0,0" style="ellipse;whiteSpace=wrap;html=1;aspect=fixed;fillColor=none;fontFamily=Lucida Console;" vertex="1" parent="1">
          <mxGeometry x="360" y="280" width="40" height="40" as="geometry" />
        </mxCell>
        <mxCell id="S3W5Z64NG27iIAzBz88U-215" value="i=0" style="text;html=1;align=center;verticalAlign=middle;whiteSpace=wrap;rounded=0;fontFamily=Lucida Console;" vertex="1" parent="1">
          <mxGeometry x="300" y="280" width="40" height="40" as="geometry" />
        </mxCell>
        <mxCell id="S3W5Z64NG27iIAzBz88U-216" value="i=1" style="text;html=1;align=center;verticalAlign=middle;whiteSpace=wrap;rounded=0;fontFamily=Lucida Console;" vertex="1" parent="1">
          <mxGeometry x="300" y="340" width="40" height="40" as="geometry" />
        </mxCell>
        <mxCell id="S3W5Z64NG27iIAzBz88U-217" value="\(\vdots\)" style="text;html=1;align=center;verticalAlign=middle;whiteSpace=wrap;rounded=0;fontFamily=Lucida Console;" vertex="1" parent="1">
          <mxGeometry x="300" y="400" width="40" height="40" as="geometry" />
        </mxCell>
        <mxCell id="S3W5Z64NG27iIAzBz88U-218" value="i=N-1" style="text;html=1;align=center;verticalAlign=middle;whiteSpace=wrap;rounded=0;fontFamily=Lucida Console;" vertex="1" parent="1">
          <mxGeometry x="300" y="460" width="40" height="40" as="geometry" />
        </mxCell>
        <mxCell id="S3W5Z64NG27iIAzBz88U-219" value="j=0" style="text;html=1;align=center;verticalAlign=middle;whiteSpace=wrap;rounded=0;fontFamily=Lucida Console;" vertex="1" parent="1">
          <mxGeometry x="360" y="220" width="40" height="40" as="geometry" />
        </mxCell>
        <mxCell id="S3W5Z64NG27iIAzBz88U-220" value="j=1" style="text;html=1;align=center;verticalAlign=middle;whiteSpace=wrap;rounded=0;fontFamily=Lucida Console;" vertex="1" parent="1">
          <mxGeometry x="420" y="220" width="40" height="40" as="geometry" />
        </mxCell>
        <mxCell id="S3W5Z64NG27iIAzBz88U-221" style="edgeStyle=orthogonalEdgeStyle;rounded=0;orthogonalLoop=1;jettySize=auto;html=1;entryX=0.5;entryY=0;entryDx=0;entryDy=0;" edge="1" parent="1" source="S3W5Z64NG27iIAzBz88U-222" target="S3W5Z64NG27iIAzBz88U-232">
          <mxGeometry relative="1" as="geometry" />
        </mxCell>
        <mxCell id="S3W5Z64NG27iIAzBz88U-222" value="0,1" style="ellipse;whiteSpace=wrap;html=1;aspect=fixed;fillColor=none;fontFamily=Lucida Console;" vertex="1" parent="1">
          <mxGeometry x="420" y="280" width="40" height="40" as="geometry" />
        </mxCell>
        <mxCell id="S3W5Z64NG27iIAzBz88U-223" value="j=1" style="text;html=1;align=center;verticalAlign=middle;whiteSpace=wrap;rounded=0;fontFamily=Lucida Console;" vertex="1" parent="1">
          <mxGeometry x="480" y="220" width="40" height="40" as="geometry" />
        </mxCell>
        <mxCell id="S3W5Z64NG27iIAzBz88U-224" value="j=M-2" style="text;html=1;align=center;verticalAlign=middle;whiteSpace=wrap;rounded=0;fontFamily=Lucida Console;" vertex="1" parent="1">
          <mxGeometry x="540" y="220" width="40" height="40" as="geometry" />
        </mxCell>
        <mxCell id="S3W5Z64NG27iIAzBz88U-225" value="j=M-1" style="text;html=1;align=center;verticalAlign=middle;whiteSpace=wrap;rounded=0;fontFamily=Lucida Console;" vertex="1" parent="1">
          <mxGeometry x="600" y="220" width="40" height="40" as="geometry" />
        </mxCell>
        <mxCell id="S3W5Z64NG27iIAzBz88U-226" style="edgeStyle=orthogonalEdgeStyle;rounded=0;orthogonalLoop=1;jettySize=auto;html=1;entryX=0;entryY=0.5;entryDx=0;entryDy=0;" edge="1" parent="1" source="S3W5Z64NG27iIAzBz88U-227" target="S3W5Z64NG27iIAzBz88U-229">
          <mxGeometry relative="1" as="geometry" />
        </mxCell>
        <mxCell id="S3W5Z64NG27iIAzBz88U-227" value="0,M-2" style="ellipse;whiteSpace=wrap;html=1;aspect=fixed;fillColor=none;fontFamily=Lucida Console;" vertex="1" parent="1">
          <mxGeometry x="540" y="280" width="40" height="40" as="geometry" />
        </mxCell>
        <mxCell id="S3W5Z64NG27iIAzBz88U-228" style="edgeStyle=orthogonalEdgeStyle;rounded=0;orthogonalLoop=1;jettySize=auto;html=1;entryX=0.5;entryY=0;entryDx=0;entryDy=0;" edge="1" parent="1" source="S3W5Z64NG27iIAzBz88U-229" target="S3W5Z64NG27iIAzBz88U-235">
          <mxGeometry relative="1" as="geometry" />
        </mxCell>
        <mxCell id="S3W5Z64NG27iIAzBz88U-229" value="0,M-1" style="ellipse;whiteSpace=wrap;html=1;aspect=fixed;fillColor=none;fontFamily=Lucida Console;" vertex="1" parent="1">
          <mxGeometry x="600" y="280" width="40" height="40" as="geometry" />
        </mxCell>
        <mxCell id="S3W5Z64NG27iIAzBz88U-230" style="edgeStyle=orthogonalEdgeStyle;rounded=0;orthogonalLoop=1;jettySize=auto;html=1;entryX=0;entryY=0.5;entryDx=0;entryDy=0;" edge="1" parent="1" source="S3W5Z64NG27iIAzBz88U-231" target="S3W5Z64NG27iIAzBz88U-232">
          <mxGeometry relative="1" as="geometry" />
        </mxCell>
        <mxCell id="S3W5Z64NG27iIAzBz88U-231" value="1,0" style="ellipse;whiteSpace=wrap;html=1;aspect=fixed;fillColor=none;fontFamily=Lucida Console;" vertex="1" parent="1">
          <mxGeometry x="360" y="340" width="40" height="40" as="geometry" />
        </mxCell>
        <mxCell id="S3W5Z64NG27iIAzBz88U-232" value="1,1" style="ellipse;whiteSpace=wrap;html=1;aspect=fixed;fillColor=none;fontFamily=Lucida Console;" vertex="1" parent="1">
          <mxGeometry x="420" y="340" width="40" height="40" as="geometry" />
        </mxCell>
        <mxCell id="S3W5Z64NG27iIAzBz88U-233" style="edgeStyle=orthogonalEdgeStyle;rounded=0;orthogonalLoop=1;jettySize=auto;html=1;entryX=0;entryY=0.5;entryDx=0;entryDy=0;" edge="1" parent="1" source="S3W5Z64NG27iIAzBz88U-234" target="S3W5Z64NG27iIAzBz88U-235">
          <mxGeometry relative="1" as="geometry" />
        </mxCell>
        <mxCell id="S3W5Z64NG27iIAzBz88U-234" value="1,M-2" style="ellipse;whiteSpace=wrap;html=1;aspect=fixed;fillColor=none;fontFamily=Lucida Console;" vertex="1" parent="1">
          <mxGeometry x="540" y="340" width="40" height="40" as="geometry" />
        </mxCell>
        <mxCell id="S3W5Z64NG27iIAzBz88U-235" value="1,M-1" style="ellipse;whiteSpace=wrap;html=1;aspect=fixed;fillColor=none;fontFamily=Lucida Console;" vertex="1" parent="1">
          <mxGeometry x="600" y="340" width="40" height="40" as="geometry" />
        </mxCell>
        <mxCell id="S3W5Z64NG27iIAzBz88U-236" style="edgeStyle=orthogonalEdgeStyle;rounded=0;orthogonalLoop=1;jettySize=auto;html=1;entryX=0;entryY=0.5;entryDx=0;entryDy=0;" edge="1" parent="1" source="S3W5Z64NG27iIAzBz88U-237" target="S3W5Z64NG27iIAzBz88U-238">
          <mxGeometry relative="1" as="geometry" />
        </mxCell>
        <mxCell id="S3W5Z64NG27iIAzBz88U-237" value="N-1,0" style="ellipse;whiteSpace=wrap;html=1;aspect=fixed;fillColor=none;fontFamily=Lucida Console;" vertex="1" parent="1">
          <mxGeometry x="360" y="460" width="40" height="40" as="geometry" />
        </mxCell>
        <mxCell id="S3W5Z64NG27iIAzBz88U-238" value="N-1,1" style="ellipse;whiteSpace=wrap;html=1;aspect=fixed;fillColor=none;fontFamily=Lucida Console;" vertex="1" parent="1">
          <mxGeometry x="420" y="460" width="40" height="40" as="geometry" />
        </mxCell>
        <mxCell id="S3W5Z64NG27iIAzBz88U-239" style="edgeStyle=orthogonalEdgeStyle;rounded=0;orthogonalLoop=1;jettySize=auto;html=1;entryX=0;entryY=0.5;entryDx=0;entryDy=0;" edge="1" parent="1" source="S3W5Z64NG27iIAzBz88U-240" target="S3W5Z64NG27iIAzBz88U-241">
          <mxGeometry relative="1" as="geometry" />
        </mxCell>
        <mxCell id="S3W5Z64NG27iIAzBz88U-240" value="N-1,M-2" style="ellipse;whiteSpace=wrap;html=1;aspect=fixed;fillColor=none;fontFamily=Lucida Console;fontSize=8;" vertex="1" parent="1">
          <mxGeometry x="540" y="460" width="40" height="40" as="geometry" />
        </mxCell>
        <mxCell id="S3W5Z64NG27iIAzBz88U-241" value="N-1,M-1" style="ellipse;whiteSpace=wrap;html=1;aspect=fixed;fillColor=none;fontFamily=Lucida Console;fontSize=8;" vertex="1" parent="1">
          <mxGeometry x="600" y="460" width="40" height="40" as="geometry" />
        </mxCell>
        <mxCell id="S3W5Z64NG27iIAzBz88U-242" value="" style="endArrow=classic;html=1;rounded=1;exitX=1;exitY=1;exitDx=0;exitDy=0;entryX=0;entryY=0;entryDx=0;entryDy=0;curved=0;" edge="1" parent="1" source="S3W5Z64NG27iIAzBz88U-214" target="S3W5Z64NG27iIAzBz88U-232">
          <mxGeometry width="50" height="50" relative="1" as="geometry">
            <mxPoint x="490" y="410" as="sourcePoint" />
            <mxPoint x="540" y="360" as="targetPoint" />
            <Array as="points" />
          </mxGeometry>
        </mxCell>
        <mxCell id="S3W5Z64NG27iIAzBz88U-243" style="edgeStyle=orthogonalEdgeStyle;rounded=0;orthogonalLoop=1;jettySize=auto;html=1;entryX=0.5;entryY=0;entryDx=0;entryDy=0;" edge="1" parent="1">
          <mxGeometry relative="1" as="geometry">
            <mxPoint x="559.9" y="320" as="sourcePoint" />
            <mxPoint x="559.9" y="340" as="targetPoint" />
          </mxGeometry>
        </mxCell>
        <mxCell id="S3W5Z64NG27iIAzBz88U-244" value="" style="endArrow=classic;html=1;rounded=1;exitX=1;exitY=1;exitDx=0;exitDy=0;entryX=0;entryY=0;entryDx=0;entryDy=0;curved=0;" edge="1" parent="1" source="S3W5Z64NG27iIAzBz88U-227" target="S3W5Z64NG27iIAzBz88U-235">
          <mxGeometry width="50" height="50" relative="1" as="geometry">
            <mxPoint x="580" y="310" as="sourcePoint" />
            <mxPoint x="612" y="342" as="targetPoint" />
            <Array as="points" />
          </mxGeometry>
        </mxCell>
        <mxCell id="S3W5Z64NG27iIAzBz88U-245" value="" style="endArrow=classic;html=1;rounded=1;exitX=1;exitY=1;exitDx=0;exitDy=0;curved=0;dashed=1;dashPattern=1 1;" edge="1" parent="1" source="S3W5Z64NG27iIAzBz88U-222">
          <mxGeometry width="50" height="50" relative="1" as="geometry">
            <mxPoint x="460" y="320" as="sourcePoint" />
            <mxPoint x="480" y="340" as="targetPoint" />
            <Array as="points" />
          </mxGeometry>
        </mxCell>
        <mxCell id="S3W5Z64NG27iIAzBz88U-246" style="edgeStyle=orthogonalEdgeStyle;rounded=0;orthogonalLoop=1;jettySize=auto;html=1;entryX=0.5;entryY=0;entryDx=0;entryDy=0;" edge="1" parent="1">
          <mxGeometry relative="1" as="geometry">
            <mxPoint x="379.92" y="380" as="sourcePoint" />
            <mxPoint x="379.92" y="400" as="targetPoint" />
          </mxGeometry>
        </mxCell>
        <mxCell id="S3W5Z64NG27iIAzBz88U-247" value="" style="endArrow=classic;html=1;rounded=1;exitX=1;exitY=1;exitDx=0;exitDy=0;entryX=0;entryY=0;entryDx=0;entryDy=0;curved=0;" edge="1" parent="1">
          <mxGeometry width="50" height="50" relative="1" as="geometry">
            <mxPoint x="397" y="370" as="sourcePoint" />
            <mxPoint x="429" y="402" as="targetPoint" />
            <Array as="points" />
          </mxGeometry>
        </mxCell>
        <mxCell id="S3W5Z64NG27iIAzBz88U-248" style="edgeStyle=orthogonalEdgeStyle;rounded=0;orthogonalLoop=1;jettySize=auto;html=1;entryX=0.5;entryY=0;entryDx=0;entryDy=0;" edge="1" parent="1">
          <mxGeometry relative="1" as="geometry">
            <mxPoint x="379.93" y="440" as="sourcePoint" />
            <mxPoint x="379.93" y="460" as="targetPoint" />
          </mxGeometry>
        </mxCell>
        <mxCell id="S3W5Z64NG27iIAzBz88U-249" value="" style="endArrow=classic;html=1;rounded=1;entryX=0;entryY=0;entryDx=0;entryDy=0;curved=0;" edge="1" parent="1" target="S3W5Z64NG27iIAzBz88U-238">
          <mxGeometry width="50" height="50" relative="1" as="geometry">
            <mxPoint x="400" y="440" as="sourcePoint" />
            <mxPoint x="446" y="460" as="targetPoint" />
            <Array as="points" />
          </mxGeometry>
        </mxCell>
        <mxCell id="S3W5Z64NG27iIAzBz88U-250" style="edgeStyle=orthogonalEdgeStyle;rounded=0;orthogonalLoop=1;jettySize=auto;html=1;entryX=0.5;entryY=0;entryDx=0;entryDy=0;" edge="1" parent="1">
          <mxGeometry relative="1" as="geometry">
            <mxPoint x="560" y="440" as="sourcePoint" />
            <mxPoint x="560" y="460" as="targetPoint" />
          </mxGeometry>
        </mxCell>
        <mxCell id="S3W5Z64NG27iIAzBz88U-251" value="" style="endArrow=classic;html=1;rounded=1;entryX=0.128;entryY=0.133;entryDx=0;entryDy=0;curved=0;entryPerimeter=0;" edge="1" parent="1" target="S3W5Z64NG27iIAzBz88U-241">
          <mxGeometry width="50" height="50" relative="1" as="geometry">
            <mxPoint x="580" y="440" as="sourcePoint" />
            <mxPoint x="599.9999999999999" y="460" as="targetPoint" />
            <Array as="points" />
          </mxGeometry>
        </mxCell>
        <mxCell id="S3W5Z64NG27iIAzBz88U-252" style="edgeStyle=orthogonalEdgeStyle;rounded=0;orthogonalLoop=1;jettySize=auto;html=1;entryX=0.5;entryY=0;entryDx=0;entryDy=0;" edge="1" parent="1">
          <mxGeometry relative="1" as="geometry">
            <mxPoint x="620" y="430" as="sourcePoint" />
            <mxPoint x="619.92" y="460" as="targetPoint" />
          </mxGeometry>
        </mxCell>
        <mxCell id="S3W5Z64NG27iIAzBz88U-253" style="edgeStyle=orthogonalEdgeStyle;rounded=0;orthogonalLoop=1;jettySize=auto;html=1;entryX=0.5;entryY=0;entryDx=0;entryDy=0;" edge="1" parent="1">
          <mxGeometry relative="1" as="geometry">
            <mxPoint x="439.94" y="430" as="sourcePoint" />
            <mxPoint x="439.85999999999996" y="460" as="targetPoint" />
          </mxGeometry>
        </mxCell>
        <mxCell id="S3W5Z64NG27iIAzBz88U-254" value="" style="endArrow=classic;html=1;rounded=1;exitX=1;exitY=1;exitDx=0;exitDy=0;curved=0;" edge="1" parent="1" source="S3W5Z64NG27iIAzBz88U-232">
          <mxGeometry width="50" height="50" relative="1" as="geometry">
            <mxPoint x="460" y="368" as="sourcePoint" />
            <mxPoint x="480" y="400" as="targetPoint" />
            <Array as="points" />
          </mxGeometry>
        </mxCell>
        <mxCell id="S3W5Z64NG27iIAzBz88U-255" style="edgeStyle=orthogonalEdgeStyle;rounded=0;orthogonalLoop=1;jettySize=auto;html=1;entryX=0.5;entryY=0;entryDx=0;entryDy=0;" edge="1" parent="1">
          <mxGeometry relative="1" as="geometry">
            <mxPoint x="439.90000000000003" y="380" as="sourcePoint" />
            <mxPoint x="439.90000000000003" y="400" as="targetPoint" />
          </mxGeometry>
        </mxCell>
        <mxCell id="S3W5Z64NG27iIAzBz88U-256" style="edgeStyle=orthogonalEdgeStyle;rounded=0;orthogonalLoop=1;jettySize=auto;html=1;entryX=0;entryY=0.5;entryDx=0;entryDy=0;" edge="1" parent="1">
          <mxGeometry relative="1" as="geometry">
            <mxPoint x="520" y="479.93" as="sourcePoint" />
            <mxPoint x="540" y="479.93" as="targetPoint" />
          </mxGeometry>
        </mxCell>
        <mxCell id="S3W5Z64NG27iIAzBz88U-257" style="edgeStyle=orthogonalEdgeStyle;rounded=0;orthogonalLoop=1;jettySize=auto;html=1;entryX=0;entryY=0.5;entryDx=0;entryDy=0;" edge="1" parent="1">
          <mxGeometry relative="1" as="geometry">
            <mxPoint x="520" y="359.95000000000005" as="sourcePoint" />
            <mxPoint x="540" y="359.95000000000005" as="targetPoint" />
          </mxGeometry>
        </mxCell>
        <mxCell id="S3W5Z64NG27iIAzBz88U-258" style="edgeStyle=orthogonalEdgeStyle;rounded=0;orthogonalLoop=1;jettySize=auto;html=1;entryX=0;entryY=0.5;entryDx=0;entryDy=0;" edge="1" parent="1">
          <mxGeometry relative="1" as="geometry">
            <mxPoint x="520" y="299.94" as="sourcePoint" />
            <mxPoint x="540" y="299.94" as="targetPoint" />
          </mxGeometry>
        </mxCell>
      </root>
    </mxGraphModel>
  </diagram>
</mxfile>
